<svg width="308" height="24" viewBox="0 0 308 24" fill="none" xmlns="http://www.w3.org/2000/svg">
<path d="M39.458 20.22C38.1087 20.22 36.9867 19.9707 36.092 19.472C35.212 18.9733 34.5447 18.2767 34.09 17.382C33.6353 16.4873 33.386 15.446 33.342 14.258C33.3273 13.6567 33.32 13.0113 33.32 12.322C33.32 11.6327 33.3273 10.9727 33.342 10.342C33.386 9.154 33.6353 8.11267 34.09 7.218C34.5447 6.32333 35.212 5.62667 36.092 5.128C36.9867 4.62933 38.1087 4.38 39.458 4.38C40.47 4.38 41.3573 4.51933 42.12 4.798C42.8827 5.07667 43.5133 5.45067 44.012 5.92C44.5253 6.38933 44.914 6.91733 45.178 7.504C45.442 8.076 45.5887 8.67 45.618 9.286C45.6327 9.418 45.5887 9.528 45.486 9.616C45.398 9.704 45.288 9.748 45.156 9.748H43.946C43.814 9.748 43.6967 9.71133 43.594 9.638C43.506 9.56467 43.44 9.43267 43.396 9.242C43.1467 8.098 42.6773 7.31333 41.988 6.888C41.3133 6.46267 40.4627 6.25 39.436 6.25C38.2627 6.25 37.3313 6.58733 36.642 7.262C35.9527 7.922 35.5787 8.98533 35.52 10.452C35.476 11.6547 35.476 12.8867 35.52 14.148C35.5787 15.6147 35.9527 16.6853 36.642 17.36C37.3313 18.02 38.2627 18.35 39.436 18.35C40.4627 18.35 41.3133 18.1373 41.988 17.712C42.6773 17.2867 43.1467 16.502 43.396 15.358C43.44 15.1673 43.506 15.0353 43.594 14.962C43.6967 14.8887 43.814 14.852 43.946 14.852H45.156C45.288 14.852 45.398 14.896 45.486 14.984C45.5887 15.072 45.6327 15.182 45.618 15.314C45.5887 15.93 45.442 16.5313 45.178 17.118C44.914 17.69 44.5253 18.2107 44.012 18.68C43.5133 19.1493 42.8827 19.5233 42.12 19.802C41.3573 20.0807 40.47 20.22 39.458 20.22ZM52.9663 20.22C51.8517 20.22 50.9203 20.0073 50.1723 19.582C49.4243 19.1567 48.8523 18.57 48.4563 17.822C48.0603 17.0593 47.8403 16.194 47.7963 15.226C47.7817 14.9767 47.7743 14.6613 47.7743 14.28C47.7743 13.884 47.7817 13.5687 47.7963 13.334C47.8403 12.3513 48.0603 11.486 48.4563 10.738C48.867 9.99 49.4463 9.40333 50.1943 8.978C50.9423 8.55267 51.8663 8.34 52.9663 8.34C54.0663 8.34 54.9903 8.55267 55.7383 8.978C56.4863 9.40333 57.0583 9.99 57.4543 10.738C57.865 11.486 58.0923 12.3513 58.1363 13.334C58.151 13.5687 58.1583 13.884 58.1583 14.28C58.1583 14.6613 58.151 14.9767 58.1363 15.226C58.0923 16.194 57.8723 17.0593 57.4763 17.822C57.0803 18.57 56.5083 19.1567 55.7603 19.582C55.0123 20.0073 54.081 20.22 52.9663 20.22ZM52.9663 18.526C53.8757 18.526 54.6017 18.24 55.1443 17.668C55.687 17.0813 55.9803 16.2307 56.0243 15.116C56.039 14.896 56.0463 14.6173 56.0463 14.28C56.0463 13.9427 56.039 13.664 56.0243 13.444C55.9803 12.3293 55.687 11.486 55.1443 10.914C54.6017 10.3273 53.8757 10.034 52.9663 10.034C52.057 10.034 51.3237 10.3273 50.7663 10.914C50.2237 11.486 49.9377 12.3293 49.9083 13.444C49.8937 13.664 49.8863 13.9427 49.8863 14.28C49.8863 14.6173 49.8937 14.896 49.9083 15.116C49.9377 16.2307 50.2237 17.0813 50.7663 17.668C51.3237 18.24 52.057 18.526 52.9663 18.526ZM61.4192 20C61.2725 20 61.1478 19.956 61.0452 19.868C60.9572 19.7653 60.9132 19.6407 60.9132 19.494V9.088C60.9132 8.94133 60.9572 8.81667 61.0452 8.714C61.1478 8.61133 61.2725 8.56 61.4192 8.56H62.4312C62.5778 8.56 62.7025 8.61133 62.8052 8.714C62.9078 8.81667 62.9592 8.94133 62.9592 9.088V10.056C63.2525 9.55733 63.6558 9.18333 64.1692 8.934C64.6825 8.68467 65.2985 8.56 66.0172 8.56H66.8972C67.0438 8.56 67.1612 8.61133 67.2492 8.714C67.3372 8.802 67.3812 8.91933 67.3812 9.066V9.968C67.3812 10.1147 67.3372 10.232 67.2492 10.32C67.1612 10.408 67.0438 10.452 66.8972 10.452H65.5772C64.7852 10.452 64.1618 10.6867 63.7072 11.156C63.2525 11.6107 63.0252 12.234 63.0252 13.026V19.494C63.0252 19.6407 62.9738 19.7653 62.8712 19.868C62.7685 19.956 62.6438 20 62.4972 20H61.4192ZM69.7766 20C69.6299 20 69.5052 19.956 69.4026 19.868C69.3146 19.7653 69.2706 19.6407 69.2706 19.494V9.088C69.2706 8.94133 69.3146 8.81667 69.4026 8.714C69.5052 8.61133 69.6299 8.56 69.7766 8.56H70.7886C70.9352 8.56 71.0599 8.61133 71.1626 8.714C71.2652 8.81667 71.3166 8.94133 71.3166 9.088V10.056C71.6099 9.55733 72.0132 9.18333 72.5266 8.934C73.0399 8.68467 73.6559 8.56 74.3746 8.56H75.2546C75.4012 8.56 75.5186 8.61133 75.6066 8.714C75.6946 8.802 75.7386 8.91933 75.7386 9.066V9.968C75.7386 10.1147 75.6946 10.232 75.6066 10.32C75.5186 10.408 75.4012 10.452 75.2546 10.452H73.9346C73.1426 10.452 72.5192 10.6867 72.0646 11.156C71.6099 11.6107 71.3826 12.234 71.3826 13.026V19.494C71.3826 19.6407 71.3312 19.7653 71.2286 19.868C71.1259 19.956 71.0012 20 70.8546 20H69.7766ZM81.9672 20.22C80.4565 20.22 79.2538 19.758 78.3592 18.834C77.4645 17.8953 76.9732 16.6193 76.8852 15.006C76.8705 14.8153 76.8632 14.5733 76.8632 14.28C76.8632 13.972 76.8705 13.7227 76.8852 13.532C76.9438 12.4907 77.1858 11.5813 77.6112 10.804C78.0365 10.012 78.6158 9.40333 79.3492 8.978C80.0972 8.55267 80.9698 8.34 81.9672 8.34C83.0818 8.34 84.0132 8.57467 84.7612 9.044C85.5238 9.51333 86.1032 10.1807 86.4992 11.046C86.8952 11.9113 87.0932 12.9233 87.0932 14.082V14.456C87.0932 14.6173 87.0418 14.742 86.9392 14.83C86.8512 14.918 86.7338 14.962 86.5872 14.962H78.9752C78.9752 14.9767 78.9752 15.006 78.9752 15.05C78.9752 15.094 78.9752 15.1307 78.9752 15.16C79.0045 15.7613 79.1365 16.326 79.3712 16.854C79.6058 17.3673 79.9432 17.7853 80.3832 18.108C80.8232 18.4307 81.3512 18.592 81.9672 18.592C82.4952 18.592 82.9352 18.5113 83.2872 18.35C83.6392 18.1887 83.9252 18.0127 84.1452 17.822C84.3652 17.6167 84.5118 17.4627 84.5852 17.36C84.7172 17.1693 84.8198 17.0593 84.8932 17.03C84.9665 16.986 85.0838 16.964 85.2452 16.964H86.3012C86.4478 16.964 86.5652 17.008 86.6532 17.096C86.7558 17.1693 86.7998 17.2793 86.7852 17.426C86.7705 17.646 86.6532 17.9173 86.4332 18.24C86.2132 18.548 85.8978 18.856 85.4872 19.164C85.0765 19.472 84.5778 19.7287 83.9912 19.934C83.4045 20.1247 82.7298 20.22 81.9672 20.22ZM78.9752 13.444H85.0032V13.378C85.0032 12.718 84.8785 12.1313 84.6292 11.618C84.3945 11.1047 84.0498 10.7013 83.5952 10.408C83.1405 10.1 82.5978 9.946 81.9672 9.946C81.3365 9.946 80.7938 10.1 80.3392 10.408C79.8992 10.7013 79.5618 11.1047 79.3272 11.618C79.0925 12.1313 78.9752 12.718 78.9752 13.378V13.444ZM94.3437 20.22C93.3024 20.22 92.4004 20.022 91.6377 19.626C90.8897 19.2153 90.3104 18.636 89.8997 17.888C89.489 17.1253 89.269 16.216 89.2397 15.16C89.225 14.94 89.2177 14.6467 89.2177 14.28C89.2177 13.9133 89.225 13.62 89.2397 13.4C89.269 12.344 89.489 11.442 89.8997 10.694C90.3104 9.93133 90.8897 9.352 91.6377 8.956C92.4004 8.54533 93.3024 8.34 94.3437 8.34C95.1944 8.34 95.9204 8.45733 96.5217 8.692C97.1377 8.92667 97.6437 9.22733 98.0397 9.594C98.4357 9.96067 98.729 10.3567 98.9197 10.782C99.125 11.2073 99.235 11.6107 99.2497 11.992C99.2644 12.1387 99.2204 12.256 99.1177 12.344C99.015 12.432 98.8904 12.476 98.7437 12.476H97.6877C97.541 12.476 97.431 12.4467 97.3577 12.388C97.2844 12.3147 97.211 12.1973 97.1377 12.036C96.8737 11.3173 96.5144 10.8113 96.0597 10.518C95.605 10.2247 95.0404 10.078 94.3657 10.078C93.4857 10.078 92.767 10.3493 92.2097 10.892C91.667 11.4347 91.3737 12.3073 91.3297 13.51C91.315 14.038 91.315 14.5513 91.3297 15.05C91.3737 16.2673 91.667 17.1473 92.2097 17.69C92.767 18.218 93.4857 18.482 94.3657 18.482C95.0404 18.482 95.605 18.3353 96.0597 18.042C96.5144 17.7487 96.8737 17.2427 97.1377 16.524C97.211 16.3627 97.2844 16.2527 97.3577 16.194C97.431 16.1207 97.541 16.084 97.6877 16.084H98.7437C98.8904 16.084 99.015 16.128 99.1177 16.216C99.2204 16.304 99.2644 16.4213 99.2497 16.568C99.235 16.876 99.169 17.1913 99.0517 17.514C98.9344 17.8367 98.7437 18.1667 98.4797 18.504C98.2304 18.8267 97.915 19.12 97.5337 19.384C97.1524 19.6333 96.6904 19.8387 96.1477 20C95.6197 20.1467 95.0184 20.22 94.3437 20.22ZM106.328 20C105.507 20 104.84 19.846 104.326 19.538C103.813 19.2153 103.439 18.768 103.204 18.196C102.97 17.6093 102.852 16.92 102.852 16.128V10.32H101.136C100.99 10.32 100.865 10.276 100.762 10.188C100.674 10.0853 100.63 9.96067 100.63 9.814V9.066C100.63 8.91933 100.674 8.802 100.762 8.714C100.865 8.61133 100.99 8.56 101.136 8.56H102.852V4.886C102.852 4.73933 102.896 4.622 102.984 4.534C103.087 4.43133 103.212 4.38 103.358 4.38H104.392C104.539 4.38 104.656 4.43133 104.744 4.534C104.847 4.622 104.898 4.73933 104.898 4.886V8.56H107.626C107.773 8.56 107.89 8.61133 107.978 8.714C108.081 8.802 108.132 8.91933 108.132 9.066V9.814C108.132 9.96067 108.081 10.0853 107.978 10.188C107.89 10.276 107.773 10.32 107.626 10.32H104.898V15.974C104.898 16.6633 105.016 17.206 105.25 17.602C105.485 17.998 105.903 18.196 106.504 18.196H107.846C107.993 18.196 108.11 18.2473 108.198 18.35C108.301 18.438 108.352 18.5553 108.352 18.702V19.494C108.352 19.6407 108.301 19.7653 108.198 19.868C108.11 19.956 107.993 20 107.846 20H106.328ZM111.006 16.348C110.859 16.348 110.735 16.304 110.632 16.216C110.544 16.1133 110.5 15.9887 110.5 15.842V5.106C110.5 4.95933 110.544 4.842 110.632 4.754C110.735 4.65133 110.859 4.6 111.006 4.6H112.04C112.187 4.6 112.304 4.65133 112.392 4.754C112.48 4.842 112.524 4.95933 112.524 5.106V15.842C112.524 15.9887 112.48 16.1133 112.392 16.216C112.304 16.304 112.187 16.348 112.04 16.348H111.006ZM110.808 20C110.661 20 110.537 19.956 110.434 19.868C110.346 19.7653 110.302 19.6407 110.302 19.494V18.108C110.302 17.9467 110.346 17.822 110.434 17.734C110.537 17.6313 110.661 17.58 110.808 17.58H112.216C112.363 17.58 112.48 17.6313 112.568 17.734C112.671 17.822 112.722 17.9467 112.722 18.108V19.494C112.722 19.6407 112.671 19.7653 112.568 19.868C112.48 19.956 112.363 20 112.216 20H110.808Z" fill="white"/>
<rect width="24" height="24" rx="6" fill="white"/>
<rect opacity="0.01" x="3" y="2" width="20" height="20" fill="black"/>
<path fill-rule="evenodd" clip-rule="evenodd" d="M15.7839 8.78569C15.7839 8.78569 19.887 8.77084 19.9746 8.78569C21.4251 9.031 21.8401 10.9987 20.5987 11.7937C21.0201 12.5389 20.7741 13.5094 20.0546 13.9702C20.4759 14.7154 20.2299 15.6859 19.5104 16.1467C20.114 17.2141 19.312 18.5807 18.0883 18.58H9.01956V9.8739C9.01956 9.8739 11.6439 7.49695 12.4887 6.67302C12.9732 6.20046 13.2861 5.57088 13.4117 4.9087C13.4262 4.8322 13.4352 4.75453 13.4442 4.677C13.4659 4.48995 13.4875 4.30381 13.5858 4.13735C13.7067 3.93263 13.9096 3.77983 14.1404 3.72175C14.5428 3.62045 15.042 3.71632 15.3992 3.9072C16.4965 4.4934 16.7525 6.14226 16.357 7.22214L15.7839 8.78569ZM5.21064 8.78569H7.38714C7.68633 8.78569 7.93128 9.02937 7.93128 9.32979V19.1241C7.93128 19.4244 7.68743 19.6681 7.38714 19.6681H5.21064C4.91035 19.6681 4.6665 19.4244 4.6665 19.1241V9.32979C4.6665 9.02937 4.91143 8.78569 5.21064 8.78569Z" fill="#0EAD69"/>
</svg>
